<svg xmlns="http://www.w3.org/2000/svg" width="820" height="480" viewBox="0 0 820 480">
<rect width="100%" height="100%" fill="#ffffff"/>
<style>text{font-family:Arial,Helvetica,sans-serif;fill:#202124}.title{font-size:18px;font-weight:700}.label{font-size:11px}.small{font-size:10px}.axis{stroke:#4b5563;stroke-width:1}.grid{stroke:#e5e7eb;stroke-width:1}.bff{fill:#2563eb}.base{fill:#dc6429}.accent{fill:#0f766e}.muted{fill:#6b7280}</style>
<text class="title" x="86" y="30">Analytic sphere-plane convergence</text>
<line class="grid" x1="86" y1="56.0" x2="675" y2="56.0"/>
<line class="grid" x1="86" y1="126.8" x2="675" y2="126.8"/>
<line class="grid" x1="86" y1="197.6" x2="675" y2="197.6"/>
<line class="grid" x1="86" y1="268.4" x2="675" y2="268.4"/>
<line class="grid" x1="86" y1="339.2" x2="675" y2="339.2"/>
<line class="grid" x1="86" y1="410.0" x2="675" y2="410.0"/>
<line class="axis" x1="86" y1="56" x2="86" y2="410"/>
<line class="axis" x1="86" y1="410" x2="675" y2="410"/>
<polyline fill="none" stroke="#2563eb" stroke-width="2.5" points="86.0,79.1 107.8,90.6 211.3,206.8 438.2,374.9 675.0,410.0"/>
<circle cx="86.0" cy="79.1" r="3.5" fill="#2563eb"/>
<circle cx="107.8" cy="90.6" r="3.5" fill="#2563eb"/>
<circle cx="211.3" cy="206.8" r="3.5" fill="#2563eb"/>
<circle cx="438.2" cy="374.9" r="3.5" fill="#2563eb"/>
<circle cx="675.0" cy="410.0" r="3.5" fill="#2563eb"/>
<rect x="697" y="56" width="12" height="12" fill="#2563eb"/>
<text class="label" x="715" y="67">sphere-plane</text>
<text class="label" x="380.5" y="456" text-anchor="middle">resolution / mesh resolution</text>
<text class="label" transform="translate(24,233.0) rotate(-90)" text-anchor="middle">relative area error log scale</text>
</svg>
