<svg xmlns="http://www.w3.org/2000/svg" width="980" height="520" viewBox="0 0 980 520">
<rect width="100%" height="100%" fill="#ffffff"/>
<style>text{font-family:Arial,Helvetica,sans-serif;fill:#202124}.title{font-size:18px;font-weight:700}.label{font-size:11px}.small{font-size:10px}.axis{stroke:#4b5563;stroke-width:1}.grid{stroke:#e5e7eb;stroke-width:1}.bff{fill:#2563eb}.base{fill:#dc6429}.accent{fill:#0f766e}.muted{fill:#6b7280}</style>
<text class="title" x="90" y="30">Curved patch chart angle distortion</text>
<line class="grid" x1="90" y1="390.0" x2="950" y2="390.0"/>
<text class="small" x="82" y="394.0" text-anchor="end">0</text>
<line class="grid" x1="90" y1="323.2" x2="950" y2="323.2"/>
<text class="small" x="82" y="327.2" text-anchor="end">3.59</text>
<line class="grid" x1="90" y1="256.4" x2="950" y2="256.4"/>
<text class="small" x="82" y="260.4" text-anchor="end">7.19</text>
<line class="grid" x1="90" y1="189.6" x2="950" y2="189.6"/>
<text class="small" x="82" y="193.6" text-anchor="end">10.8</text>
<line class="grid" x1="90" y1="122.8" x2="950" y2="122.8"/>
<text class="small" x="82" y="126.8" text-anchor="end">14.4</text>
<line class="grid" x1="90" y1="56.0" x2="950" y2="56.0"/>
<text class="small" x="82" y="60.0" text-anchor="end">18</text>
<line class="axis" x1="90" y1="56" x2="90" y2="390"/>
<line class="axis" x1="90" y1="390" x2="950" y2="390"/>
<rect class="bff" x="110.4" y="388.9" width="66.7" height="1.1" rx="2"/>
<text class="small" x="143.8" y="384.9" text-anchor="middle">0.0593</text>
<text class="small" transform="translate(143.8,402) rotate(45)" text-anchor="start">sph_cap_30
official-bff</text>
<rect class="base" x="217.9" y="373.4" width="66.7" height="16.6" rx="2"/>
<text class="small" x="251.2" y="369.4" text-anchor="middle">0.895</text>
<text class="small" transform="translate(251.2,402) rotate(45)" text-anchor="start">sph_cap_30
planar</text>
<rect class="bff" x="325.4" y="382.5" width="66.7" height="7.5" rx="2"/>
<text class="small" x="358.8" y="378.5" text-anchor="middle">0.401</text>
<text class="small" transform="translate(358.8,402) rotate(45)" text-anchor="start">sph_cap_90
official-bff</text>
<rect class="base" x="432.9" y="216.2" width="66.7" height="173.8" rx="2"/>
<text class="small" x="466.2" y="212.2" text-anchor="middle">9.35</text>
<text class="small" transform="translate(466.2,402) rotate(45)" text-anchor="start">sph_cap_90
planar</text>
<rect class="bff" x="540.4" y="377.5" width="66.7" height="12.5" rx="2"/>
<text class="small" x="573.8" y="373.5" text-anchor="middle">0.675</text>
<text class="small" transform="translate(573.8,402) rotate(45)" text-anchor="start">sph_cap_135
official-bff</text>
<rect class="base" x="647.9" y="142.0" width="66.7" height="248.0" rx="2"/>
<text class="small" x="681.2" y="138.0" text-anchor="middle">13.3</text>
<text class="small" transform="translate(681.2,402) rotate(45)" text-anchor="start">sph_cap_135
planar</text>
<rect class="bff" x="755.4" y="378.4" width="66.7" height="11.6" rx="2"/>
<text class="small" x="788.8" y="374.4" text-anchor="middle">0.625</text>
<text class="small" transform="translate(788.8,402) rotate(45)" text-anchor="start">ellipsoid_cap
official-bff</text>
<rect class="base" x="862.9" y="91.8" width="66.7" height="298.2" rx="2"/>
<text class="small" x="896.2" y="87.8" text-anchor="middle">16</text>
<text class="small" transform="translate(896.2,402) rotate(45)" text-anchor="start">ellipsoid_cap
planar</text>
<text class="label" transform="translate(22,223.0) rotate(-90)" text-anchor="middle">mean angle distortion (deg)</text>
</svg>
