<svg xmlns="http://www.w3.org/2000/svg" width="980" height="520" viewBox="0 0 980 520">
<rect width="100%" height="100%" fill="#ffffff"/>
<style>text{font-family:Arial,Helvetica,sans-serif;fill:#202124}.title{font-size:18px;font-weight:700}.label{font-size:11px}.small{font-size:10px}.axis{stroke:#4b5563;stroke-width:1}.grid{stroke:#e5e7eb;stroke-width:1}.bff{fill:#2563eb}.base{fill:#dc6429}.accent{fill:#0f766e}.muted{fill:#6b7280}</style>
<text class="title" x="90" y="30">Real-asset contact areas with reference-backed rows</text>
<line class="grid" x1="90" y1="390.0" x2="950" y2="390.0"/>
<text class="small" x="82" y="394.0" text-anchor="end">0</text>
<line class="grid" x1="90" y1="323.2" x2="950" y2="323.2"/>
<text class="small" x="82" y="327.2" text-anchor="end">1.11</text>
<line class="grid" x1="90" y1="256.4" x2="950" y2="256.4"/>
<text class="small" x="82" y="260.4" text-anchor="end">2.21</text>
<line class="grid" x1="90" y1="189.6" x2="950" y2="189.6"/>
<text class="small" x="82" y="193.6" text-anchor="end">3.32</text>
<line class="grid" x1="90" y1="122.8" x2="950" y2="122.8"/>
<text class="small" x="82" y="126.8" text-anchor="end">4.43</text>
<line class="grid" x1="90" y1="56.0" x2="950" y2="56.0"/>
<text class="small" x="82" y="60.0" text-anchor="end">5.53</text>
<line class="axis" x1="90" y1="56" x2="90" y2="390"/>
<line class="axis" x1="90" y1="390" x2="950" y2="390"/>
<rect class="accent" x="122.7" y="371.8" width="106.6" height="18.2" rx="2"/>
<text class="small" x="176.0" y="367.8" text-anchor="middle">0.302</text>
<text class="small" transform="translate(176.0,402) rotate(45)" text-anchor="start">bunny_plane</text>
<rect class="accent" x="294.7" y="386.1" width="106.6" height="3.9" rx="2"/>
<text class="small" x="348.0" y="382.1" text-anchor="middle">0.0644</text>
<text class="small" transform="translate(348.0,402) rotate(45)" text-anchor="start">bunny_sphere</text>
<rect class="accent" x="466.7" y="377.4" width="106.6" height="12.6" rx="2"/>
<text class="small" x="520.0" y="373.4" text-anchor="middle">0.209</text>
<text class="small" transform="translate(520.0,402) rotate(45)" text-anchor="start">bunny_tilted_plane</text>
<rect class="accent" x="638.7" y="91.8" width="106.6" height="298.2" rx="2"/>
<text class="small" x="692.0" y="87.8" text-anchor="middle">4.94</text>
<text class="small" transform="translate(692.0,402) rotate(45)" text-anchor="start">mechanical_gear_plane</text>
<rect class="accent" x="810.7" y="383.6" width="106.6" height="6.4" rx="2"/>
<text class="small" x="864.0" y="379.6" text-anchor="middle">0.105</text>
<text class="small" transform="translate(864.0,402) rotate(45)" text-anchor="start">mechanical_gear_sphere</text>
<text class="label" transform="translate(22,223.0) rotate(-90)" text-anchor="middle">contact area</text>
</svg>
