<svg xmlns="http://www.w3.org/2000/svg" width="1040" height="560" viewBox="0 0 1040 560">
<rect width="100%" height="100%" fill="#ffffff"/>
<style>text{font-family:Arial,Helvetica,sans-serif;fill:#202124}.title{font-size:18px;font-weight:700}.label{font-size:11px}.small{font-size:10px}.axis{stroke:#4b5563;stroke-width:1}.grid{stroke:#e5e7eb;stroke-width:1}.bff{fill:#2563eb}.base{fill:#dc6429}.accent{fill:#0f766e}.muted{fill:#6b7280}</style>
<text class="title" x="92" y="30">Runtime breakdown by benchmark row</text>
<line class="grid" x1="92" y1="415.0" x2="910" y2="415.0"/>
<text class="small" x="84" y="419.0" text-anchor="end">0</text>
<line class="grid" x1="92" y1="343.6" x2="910" y2="343.6"/>
<text class="small" x="84" y="347.6" text-anchor="end">814</text>
<line class="grid" x1="92" y1="272.2" x2="910" y2="272.2"/>
<text class="small" x="84" y="276.2" text-anchor="end">1.63e+03</text>
<line class="grid" x1="92" y1="200.8" x2="910" y2="200.8"/>
<text class="small" x="84" y="204.8" text-anchor="end">2.44e+03</text>
<line class="grid" x1="92" y1="129.4" x2="910" y2="129.4"/>
<text class="small" x="84" y="133.4" text-anchor="end">3.26e+03</text>
<line class="grid" x1="92" y1="58.0" x2="910" y2="58.0"/>
<text class="small" x="84" y="62.0" text-anchor="end">4.07e+03</text>
<line class="axis" x1="92" y1="58" x2="92" y2="415"/>
<line class="axis" x1="92" y1="415" x2="910" y2="415"/>
<rect x="109.2" y="105.4" width="47.4" height="309.6" fill="#2563eb" rx="1"/>
<rect x="109.2" y="104.0" width="47.4" height="1.5" fill="#dc6429" rx="1"/>
<rect x="109.2" y="96.2" width="47.4" height="7.7" fill="#6b7280" rx="1"/>
<text class="small" transform="translate(132.9,427) rotate(45)" text-anchor="start">sphere sphere equal</text>
<rect x="191.0" y="106.3" width="47.4" height="308.7" fill="#2563eb" rx="1"/>
<rect x="191.0" y="106.3" width="47.4" height="0.0" fill="#dc6429" rx="1"/>
<rect x="191.0" y="98.7" width="47.4" height="7.6" fill="#6b7280" rx="1"/>
<text class="small" transform="translate(214.7,427) rotate(45)" text-anchor="start">sphere sphere equal</text>
<rect x="272.8" y="414.8" width="47.4" height="0.2" fill="#2563eb" rx="1"/>
<rect x="272.8" y="409.3" width="47.4" height="5.5" fill="#dc6429" rx="1"/>
<rect x="272.8" y="409.2" width="47.4" height="0.1" fill="#6b7280" rx="1"/>
<text class="small" transform="translate(296.5,427) rotate(45)" text-anchor="start">bunny sphere real</text>
<rect x="354.6" y="414.5" width="47.4" height="0.5" fill="#2563eb" rx="1"/>
<rect x="354.6" y="412.8" width="47.4" height="1.7" fill="#dc6429" rx="1"/>
<rect x="354.6" y="412.8" width="47.4" height="0.0" fill="#6b7280" rx="1"/>
<text class="small" transform="translate(378.3,427) rotate(45)" text-anchor="start">seam two chart sphere sphere</text>
<rect x="436.4" y="414.5" width="47.4" height="0.5" fill="#2563eb" rx="1"/>
<rect x="436.4" y="413.0" width="47.4" height="1.5" fill="#dc6429" rx="1"/>
<rect x="436.4" y="413.0" width="47.4" height="0.0" fill="#6b7280" rx="1"/>
<text class="small" transform="translate(460.1,427) rotate(45)" text-anchor="start">sphere sphere equal</text>
<rect x="518.2" y="414.5" width="47.4" height="0.5" fill="#2563eb" rx="1"/>
<rect x="518.2" y="413.0" width="47.4" height="1.5" fill="#dc6429" rx="1"/>
<rect x="518.2" y="413.0" width="47.4" height="0.0" fill="#6b7280" rx="1"/>
<text class="small" transform="translate(541.9,427) rotate(45)" text-anchor="start">sphere sphere unequal</text>
<rect x="600.0" y="413.8" width="47.4" height="1.2" fill="#2563eb" rx="1"/>
<rect x="600.0" y="413.8" width="47.4" height="0.0" fill="#dc6429" rx="1"/>
<rect x="600.0" y="413.7" width="47.4" height="0.0" fill="#6b7280" rx="1"/>
<text class="small" transform="translate(623.7,427) rotate(45)" text-anchor="start">sphere sphere equal</text>
<rect x="681.8" y="414.2" width="47.4" height="0.8" fill="#2563eb" rx="1"/>
<rect x="681.8" y="414.2" width="47.4" height="0.0" fill="#dc6429" rx="1"/>
<rect x="681.8" y="414.2" width="47.4" height="0.0" fill="#6b7280" rx="1"/>
<text class="small" transform="translate(705.5,427) rotate(45)" text-anchor="start">sphere plane medium</text>
<rect x="763.6" y="414.2" width="47.4" height="0.8" fill="#2563eb" rx="1"/>
<rect x="763.6" y="414.2" width="47.4" height="0.0" fill="#dc6429" rx="1"/>
<rect x="763.6" y="414.2" width="47.4" height="0.0" fill="#6b7280" rx="1"/>
<text class="small" transform="translate(787.3,427) rotate(45)" text-anchor="start">sphere plane medium</text>
<rect x="845.4" y="414.2" width="47.4" height="0.8" fill="#2563eb" rx="1"/>
<rect x="845.4" y="414.2" width="47.4" height="0.0" fill="#dc6429" rx="1"/>
<rect x="845.4" y="414.2" width="47.4" height="0.0" fill="#6b7280" rx="1"/>
<text class="small" transform="translate(869.1,427) rotate(45)" text-anchor="start">sphere plane medium</text>
<rect x="934" y="58" width="13" height="13" fill="#2563eb"/>
<text class="label" x="954" y="70">integration</text>
<rect x="934" y="82" width="13" height="13" fill="#dc6429"/>
<text class="label" x="954" y="94">projection</text>
<rect x="934" y="106" width="13" height="13" fill="#6b7280"/>
<text class="label" x="954" y="118">other</text>
<text class="label" transform="translate(24,236.5) rotate(-90)" text-anchor="middle">runtime (ms)</text>
</svg>
